<mxfile host="Electron" modified="2023-05-10T01:38:10.682Z" agent="Mozilla/5.0 (Windows NT 10.0; Win64; x64) AppleWebKit/537.36 (KHTML, like Gecko) draw.io/21.2.8 Chrome/112.0.5615.165 Electron/24.2.0 Safari/537.36" etag="VvM8fdMz2cSE0mvMx5gm" version="21.2.8" type="device">
  <diagram name="Page-1" id="5f0bae14-7c28-e335-631c-24af17079c00">
    <mxGraphModel dx="1195" dy="697" grid="1" gridSize="10" guides="1" tooltips="1" connect="1" arrows="1" fold="1" page="1" pageScale="1" pageWidth="1100" pageHeight="850" background="none" math="0" shadow="0">
      <root>
        <mxCell id="0" />
        <mxCell id="1" parent="0" />
        <mxCell id="888cdfCBN93uRVMYemcH-95" value="" style="rounded=0;whiteSpace=wrap;html=1;fillColor=none;strokeColor=#3399FF;" vertex="1" parent="1">
          <mxGeometry x="50" y="420" width="630" height="110" as="geometry" />
        </mxCell>
        <mxCell id="888cdfCBN93uRVMYemcH-1" value="Router" style="rounded=0;whiteSpace=wrap;html=1;" vertex="1" parent="1">
          <mxGeometry x="40" y="340" width="650" height="60" as="geometry" />
        </mxCell>
        <mxCell id="888cdfCBN93uRVMYemcH-45" value="" style="rounded=0;whiteSpace=wrap;html=1;fillColor=none;strokeColor=#FF0000;" vertex="1" parent="1">
          <mxGeometry x="40" y="50" width="240" height="170" as="geometry" />
        </mxCell>
        <mxCell id="888cdfCBN93uRVMYemcH-46" style="edgeStyle=orthogonalEdgeStyle;rounded=0;orthogonalLoop=1;jettySize=auto;html=1;exitX=0.75;exitY=1;exitDx=0;exitDy=0;entryX=0.5;entryY=0;entryDx=0;entryDy=0;" edge="1" parent="1" target="888cdfCBN93uRVMYemcH-53">
          <mxGeometry relative="1" as="geometry">
            <mxPoint x="200" y="200" as="sourcePoint" />
          </mxGeometry>
        </mxCell>
        <mxCell id="888cdfCBN93uRVMYemcH-48" value="Mux&amp;lt;Encoder&amp;gt;" style="whiteSpace=wrap;html=1;" vertex="1" parent="1">
          <mxGeometry x="60" y="160" width="200" height="40" as="geometry" />
        </mxCell>
        <mxCell id="888cdfCBN93uRVMYemcH-49" style="edgeStyle=orthogonalEdgeStyle;rounded=0;orthogonalLoop=1;jettySize=auto;html=1;startArrow=classic;startFill=1;jumpStyle=none;shadow=0;" edge="1" parent="1" source="888cdfCBN93uRVMYemcH-50" target="888cdfCBN93uRVMYemcH-48">
          <mxGeometry relative="1" as="geometry" />
        </mxCell>
        <mxCell id="888cdfCBN93uRVMYemcH-50" value="Stream" style="whiteSpace=wrap;html=1;" vertex="1" parent="1">
          <mxGeometry x="100" y="80" width="120" height="40" as="geometry" />
        </mxCell>
        <mxCell id="888cdfCBN93uRVMYemcH-51" value="Protocol data" style="text;html=1;align=center;verticalAlign=middle;resizable=0;points=[];autosize=1;strokeColor=none;fillColor=none;fontSize=10;" vertex="1" parent="1">
          <mxGeometry x="155" y="125" width="80" height="30" as="geometry" />
        </mxCell>
        <mxCell id="888cdfCBN93uRVMYemcH-52" style="edgeStyle=orthogonalEdgeStyle;rounded=0;orthogonalLoop=1;jettySize=auto;html=1;exitX=0.5;exitY=1;exitDx=0;exitDy=0;entryX=0.281;entryY=0;entryDx=0;entryDy=0;entryPerimeter=0;" edge="1" parent="1" source="888cdfCBN93uRVMYemcH-53">
          <mxGeometry relative="1" as="geometry">
            <mxPoint x="200" y="340" as="targetPoint" />
          </mxGeometry>
        </mxCell>
        <mxCell id="888cdfCBN93uRVMYemcH-53" value="Router Handle" style="whiteSpace=wrap;html=1;" vertex="1" parent="1">
          <mxGeometry x="140" y="260" width="120" height="40" as="geometry" />
        </mxCell>
        <mxCell id="888cdfCBN93uRVMYemcH-54" value="packet,&lt;br style=&quot;font-size: 10px;&quot;&gt;channel" style="text;html=1;align=center;verticalAlign=middle;resizable=0;points=[];autosize=1;strokeColor=none;fillColor=none;fontSize=10;" vertex="1" parent="1">
          <mxGeometry x="65" y="260" width="60" height="40" as="geometry" />
        </mxCell>
        <mxCell id="888cdfCBN93uRVMYemcH-55" value="packet,&lt;br style=&quot;font-size: 10px;&quot;&gt;channel" style="text;html=1;align=center;verticalAlign=middle;resizable=0;points=[];autosize=1;strokeColor=none;fillColor=none;fontSize=10;" vertex="1" parent="1">
          <mxGeometry x="195" y="220" width="60" height="40" as="geometry" />
        </mxCell>
        <mxCell id="888cdfCBN93uRVMYemcH-56" value="+ data link&lt;br style=&quot;font-size: 10px;&quot;&gt;id" style="text;html=1;align=center;verticalAlign=middle;resizable=0;points=[];autosize=1;strokeColor=none;fillColor=none;fontSize=10;" vertex="1" parent="1">
          <mxGeometry x="195" y="300" width="70" height="40" as="geometry" />
        </mxCell>
        <mxCell id="888cdfCBN93uRVMYemcH-57" value="Data link 1" style="text;html=1;align=center;verticalAlign=middle;resizable=0;points=[];autosize=1;strokeColor=none;fillColor=none;fontSize=10;" vertex="1" parent="1">
          <mxGeometry x="210" y="50" width="70" height="30" as="geometry" />
        </mxCell>
        <mxCell id="888cdfCBN93uRVMYemcH-65" style="edgeStyle=orthogonalEdgeStyle;rounded=0;orthogonalLoop=1;jettySize=auto;html=1;exitX=0.25;exitY=1;exitDx=0;exitDy=0;entryX=0.094;entryY=0;entryDx=0;entryDy=0;entryPerimeter=0;startArrow=classic;startFill=1;endArrow=none;endFill=0;" edge="1" parent="1">
          <mxGeometry relative="1" as="geometry">
            <mxPoint x="120" y="340" as="targetPoint" />
            <mxPoint x="120" y="200" as="sourcePoint" />
          </mxGeometry>
        </mxCell>
        <mxCell id="888cdfCBN93uRVMYemcH-67" value="" style="rounded=0;whiteSpace=wrap;html=1;fillColor=none;strokeColor=#FF0000;" vertex="1" parent="1">
          <mxGeometry x="310" y="50" width="240" height="170" as="geometry" />
        </mxCell>
        <mxCell id="888cdfCBN93uRVMYemcH-68" style="edgeStyle=orthogonalEdgeStyle;rounded=0;orthogonalLoop=1;jettySize=auto;html=1;exitX=0.75;exitY=1;exitDx=0;exitDy=0;entryX=0.5;entryY=0;entryDx=0;entryDy=0;" edge="1" parent="1" target="888cdfCBN93uRVMYemcH-74">
          <mxGeometry relative="1" as="geometry">
            <mxPoint x="470" y="200" as="sourcePoint" />
          </mxGeometry>
        </mxCell>
        <mxCell id="888cdfCBN93uRVMYemcH-69" value="Mux&amp;lt;Encoder&amp;gt;" style="whiteSpace=wrap;html=1;" vertex="1" parent="1">
          <mxGeometry x="330" y="160" width="200" height="40" as="geometry" />
        </mxCell>
        <mxCell id="888cdfCBN93uRVMYemcH-70" style="edgeStyle=orthogonalEdgeStyle;rounded=0;orthogonalLoop=1;jettySize=auto;html=1;startArrow=classic;startFill=1;jumpStyle=none;shadow=0;" edge="1" parent="1" source="888cdfCBN93uRVMYemcH-71" target="888cdfCBN93uRVMYemcH-69">
          <mxGeometry relative="1" as="geometry" />
        </mxCell>
        <mxCell id="888cdfCBN93uRVMYemcH-71" value="Stream" style="whiteSpace=wrap;html=1;" vertex="1" parent="1">
          <mxGeometry x="370" y="80" width="120" height="40" as="geometry" />
        </mxCell>
        <mxCell id="888cdfCBN93uRVMYemcH-72" value="Protocol data" style="text;html=1;align=center;verticalAlign=middle;resizable=0;points=[];autosize=1;strokeColor=none;fillColor=none;fontSize=10;" vertex="1" parent="1">
          <mxGeometry x="425" y="125" width="80" height="30" as="geometry" />
        </mxCell>
        <mxCell id="888cdfCBN93uRVMYemcH-73" style="edgeStyle=orthogonalEdgeStyle;rounded=0;orthogonalLoop=1;jettySize=auto;html=1;exitX=0.5;exitY=1;exitDx=0;exitDy=0;entryX=0.281;entryY=0;entryDx=0;entryDy=0;entryPerimeter=0;" edge="1" parent="1" source="888cdfCBN93uRVMYemcH-74">
          <mxGeometry relative="1" as="geometry">
            <mxPoint x="470" y="340" as="targetPoint" />
          </mxGeometry>
        </mxCell>
        <mxCell id="888cdfCBN93uRVMYemcH-74" value="Router Handle" style="whiteSpace=wrap;html=1;" vertex="1" parent="1">
          <mxGeometry x="410" y="260" width="120" height="40" as="geometry" />
        </mxCell>
        <mxCell id="888cdfCBN93uRVMYemcH-75" value="packet,&lt;br style=&quot;font-size: 10px;&quot;&gt;channel" style="text;html=1;align=center;verticalAlign=middle;resizable=0;points=[];autosize=1;strokeColor=none;fillColor=none;fontSize=10;" vertex="1" parent="1">
          <mxGeometry x="330" y="260" width="60" height="40" as="geometry" />
        </mxCell>
        <mxCell id="888cdfCBN93uRVMYemcH-76" value="packet,&lt;br style=&quot;font-size: 10px;&quot;&gt;channel" style="text;html=1;align=center;verticalAlign=middle;resizable=0;points=[];autosize=1;strokeColor=none;fillColor=none;fontSize=10;" vertex="1" parent="1">
          <mxGeometry x="468" y="220" width="60" height="40" as="geometry" />
        </mxCell>
        <mxCell id="888cdfCBN93uRVMYemcH-77" value="+ data link&lt;br style=&quot;font-size: 10px;&quot;&gt;id" style="text;html=1;align=center;verticalAlign=middle;resizable=0;points=[];autosize=1;strokeColor=none;fillColor=none;fontSize=10;" vertex="1" parent="1">
          <mxGeometry x="463" y="300" width="70" height="40" as="geometry" />
        </mxCell>
        <mxCell id="888cdfCBN93uRVMYemcH-78" value="Data link 2" style="text;html=1;align=center;verticalAlign=middle;resizable=0;points=[];autosize=1;strokeColor=none;fillColor=none;fontSize=10;" vertex="1" parent="1">
          <mxGeometry x="480" y="50" width="70" height="30" as="geometry" />
        </mxCell>
        <mxCell id="888cdfCBN93uRVMYemcH-79" style="edgeStyle=orthogonalEdgeStyle;rounded=0;orthogonalLoop=1;jettySize=auto;html=1;exitX=0.25;exitY=1;exitDx=0;exitDy=0;entryX=0.094;entryY=0;entryDx=0;entryDy=0;entryPerimeter=0;startArrow=classic;startFill=1;endArrow=none;endFill=0;" edge="1" parent="1">
          <mxGeometry relative="1" as="geometry">
            <mxPoint x="390" y="340" as="targetPoint" />
            <mxPoint x="390" y="200" as="sourcePoint" />
          </mxGeometry>
        </mxCell>
        <mxCell id="888cdfCBN93uRVMYemcH-89" value="Input&lt;br&gt;Communicator" style="rounded=0;whiteSpace=wrap;html=1;" vertex="1" parent="1">
          <mxGeometry x="100" y="470" width="120" height="40" as="geometry" />
        </mxCell>
        <mxCell id="888cdfCBN93uRVMYemcH-90" value="" style="edgeStyle=none;orthogonalLoop=1;jettySize=auto;html=1;rounded=0;" edge="1" parent="1">
          <mxGeometry width="100" relative="1" as="geometry">
            <mxPoint x="159.88" y="400" as="sourcePoint" />
            <mxPoint x="159.88" y="470" as="targetPoint" />
            <Array as="points" />
          </mxGeometry>
        </mxCell>
        <mxCell id="888cdfCBN93uRVMYemcH-91" value="channel 1 data,&lt;br&gt;&lt;div style=&quot;&quot;&gt;&lt;span style=&quot;background-color: initial;&quot;&gt;data link id&lt;/span&gt;&lt;/div&gt;" style="text;html=1;align=center;verticalAlign=middle;resizable=0;points=[];autosize=1;strokeColor=none;fillColor=none;fontSize=10;" vertex="1" parent="1">
          <mxGeometry x="155" y="420" width="90" height="40" as="geometry" />
        </mxCell>
        <mxCell id="888cdfCBN93uRVMYemcH-92" value="Output&lt;br&gt;Communicator" style="rounded=0;whiteSpace=wrap;html=1;" vertex="1" parent="1">
          <mxGeometry x="265" y="470" width="120" height="40" as="geometry" />
        </mxCell>
        <mxCell id="888cdfCBN93uRVMYemcH-93" value="" style="edgeStyle=none;orthogonalLoop=1;jettySize=auto;html=1;rounded=0;startArrow=classic;startFill=1;endArrow=none;endFill=0;" edge="1" parent="1">
          <mxGeometry width="100" relative="1" as="geometry">
            <mxPoint x="324.88" y="400" as="sourcePoint" />
            <mxPoint x="324.88" y="470" as="targetPoint" />
            <Array as="points" />
          </mxGeometry>
        </mxCell>
        <mxCell id="888cdfCBN93uRVMYemcH-94" value="channel 1 data,&lt;br&gt;&lt;div style=&quot;&quot;&gt;&lt;span style=&quot;background-color: initial;&quot;&gt;data link id&lt;/span&gt;&lt;/div&gt;" style="text;html=1;align=center;verticalAlign=middle;resizable=0;points=[];autosize=1;strokeColor=none;fillColor=none;fontSize=10;" vertex="1" parent="1">
          <mxGeometry x="320" y="420" width="90" height="40" as="geometry" />
        </mxCell>
        <mxCell id="888cdfCBN93uRVMYemcH-98" value="Communicator layer&lt;font style=&quot;font-size: 10px;&quot;&gt;&lt;br style=&quot;font-size: 10px;&quot;&gt;&lt;/font&gt;" style="text;html=1;align=center;verticalAlign=middle;resizable=0;points=[];autosize=1;strokeColor=none;fillColor=none;fontSize=10;" vertex="1" parent="1">
          <mxGeometry x="570" y="420" width="110" height="30" as="geometry" />
        </mxCell>
        <mxCell id="888cdfCBN93uRVMYemcH-100" value="&lt;font style=&quot;font-size: 30px;&quot;&gt;...&lt;/font&gt;" style="text;html=1;align=center;verticalAlign=top;resizable=0;points=[];autosize=1;strokeColor=none;fillColor=none;fontSize=30;horizontal=1;" vertex="1" parent="1">
          <mxGeometry x="600" y="110" width="50" height="50" as="geometry" />
        </mxCell>
        <mxCell id="888cdfCBN93uRVMYemcH-101" value="Output&lt;br&gt;Communicator" style="rounded=0;whiteSpace=wrap;html=1;" vertex="1" parent="1">
          <mxGeometry x="430" y="470" width="120" height="40" as="geometry" />
        </mxCell>
        <mxCell id="888cdfCBN93uRVMYemcH-102" value="" style="edgeStyle=none;orthogonalLoop=1;jettySize=auto;html=1;rounded=0;startArrow=classic;startFill=1;endArrow=none;endFill=0;" edge="1" parent="1">
          <mxGeometry width="100" relative="1" as="geometry">
            <mxPoint x="489.88" y="400" as="sourcePoint" />
            <mxPoint x="489.88" y="470" as="targetPoint" />
            <Array as="points" />
          </mxGeometry>
        </mxCell>
        <mxCell id="888cdfCBN93uRVMYemcH-103" value="channel 2 data,&lt;br&gt;&lt;div style=&quot;&quot;&gt;&lt;span style=&quot;background-color: initial;&quot;&gt;data link id&lt;/span&gt;&lt;/div&gt;" style="text;html=1;align=center;verticalAlign=middle;resizable=0;points=[];autosize=1;strokeColor=none;fillColor=none;fontSize=10;" vertex="1" parent="1">
          <mxGeometry x="485" y="420" width="90" height="40" as="geometry" />
        </mxCell>
      </root>
    </mxGraphModel>
  </diagram>
</mxfile>
